<svg id="Capa_1" enable-background="new 0 0 512 512" height="512" viewBox="0 0 512 512" width="512" xmlns="http://www.w3.org/2000/svg" xmlns:xlink="http://www.w3.org/1999/xlink"><linearGradient id="SVGID_1_" gradientUnits="userSpaceOnUse" x1="256" x2="256" y1="512" y2="0"><stop offset="0" stop-color="#ffc8d1"/><stop offset="1" stop-color="#fff6f7"/></linearGradient><linearGradient id="SVGID_2_" gradientUnits="userSpaceOnUse" x1="256" x2="256" y1="407" y2="105"><stop offset="0" stop-color="#ffa68d"/><stop offset="1" stop-color="#fd3a84"/></linearGradient><g><g><circle cx="256" cy="256" fill="url(#SVGID_1_)" r="256"/></g><g><g><path d="m109.91 192.887 142.118 71.059c1.249.625 2.62.937 3.973.937s2.724-.312 3.973-.937l142.118-71.059c3.001-1.509 4.91-4.58 4.91-7.946s-1.908-6.436-4.91-7.946l-142.118-71.059c-2.498-1.249-5.447-1.249-7.945 0l-142.119 71.06c-3.001 1.509-4.91 4.58-4.91 7.946s1.908 6.435 4.91 7.945zm292.18 55.167-35.304-17.652-98.868 49.434c-3.678 1.839-7.807 2.811-11.918 2.811s-8.24-.971-11.918-2.811l-98.868-49.434-35.304 17.652c-3.001 1.509-4.91 4.58-4.91 7.946 0 3.365 1.908 6.436 4.91 7.946l142.118 71.059c1.249.625 2.62.937 3.973.937s2.724-.313 3.973-.937l142.118-71.059c3.001-1.509 4.91-4.58 4.91-7.946-.002-3.366-1.91-6.436-4.912-7.946zm0 71.059-35.304-17.652-98.868 49.434c-3.678 1.839-7.807 2.811-11.918 2.811s-8.24-.972-11.918-2.811l-98.868-49.434-35.304 17.652c-3.001 1.509-4.91 4.58-4.91 7.945 0 3.366 1.908 6.437 4.91 7.946l142.118 71.059c1.249.625 2.62.937 3.973.937s2.724-.313 3.973-.937l142.118-71.059c3.001-1.509 4.91-4.58 4.91-7.946-.002-3.365-1.91-6.435-4.912-7.945z" fill="url(#SVGID_2_)"/></g></g></g></svg>