<?xml version="1.0" encoding="UTF-8"?>
<svg xmlns="http://www.w3.org/2000/svg" xmlns:xlink="http://www.w3.org/1999/xlink" width="1em" height="1em" viewBox="0 0 16 16" version="1.1">
<g id="surface2944023">
<path style=" stroke:none;fill-rule:nonzero;fill:rgb(0%,0%,0%);fill-opacity:1;" d="M 0 8 C 0 3.582031 3.582031 0 8 0 C 12.417969 0 16 3.582031 16 8 C 16 12.417969 12.417969 16 8 16 C 3.582031 16 0 12.417969 0 8 Z M 8 14.71875 C 11.710938 14.71875 14.71875 11.710938 14.71875 8 C 14.71875 4.289062 11.710938 1.28125 8 1.28125 C 4.289062 1.28125 1.28125 4.289062 1.28125 8 C 1.28125 11.710938 4.289062 14.71875 8 14.71875 Z M 8 14.71875 "/>
<path style=" stroke:none;fill-rule:nonzero;fill:rgb(0%,0%,0%);fill-opacity:1;" d="M 9.503906 2.046875 L 8.839844 2.496094 L 11.085938 5.765625 L 11.746094 5.3125 Z M 7.726562 3.433594 L 7.203125 4.039062 L 10.304688 6.738281 L 10.832031 6.132812 Z M 6.554688 5.316406 L 6.191406 6.027344 L 9.742188 7.835938 L 10.101562 7.121094 Z M 5.863281 7.183594 L 5.679688 7.960938 L 9.554688 8.867188 L 9.734375 8.085938 Z M 3.972656 8.671875 L 3.972656 12.671875 L 11.171875 12.671875 L 11.171875 8.671875 L 10.371094 8.671875 L 10.371094 11.871094 L 4.773438 11.871094 L 4.773438 8.671875 Z M 5.597656 8.871094 L 5.546875 9.671875 L 9.550781 9.925781 L 9.601562 9.128906 Z M 5.570312 10.273438 L 5.570312 11.070312 L 9.570312 11.070312 L 9.570312 10.273438 Z M 5.570312 10.273438 "/>
</g>
</svg>
