<?xml version="1.0" encoding="UTF-8" standalone="no"?>
<!DOCTYPE svg PUBLIC "-//W3C//DTD SVG 1.1//EN" "http://www.w3.org/Graphics/SVG/1.1/DTD/svg11.dtd">
<svg width="100%" height="100%" viewBox="0 0 1030 922" version="1.1" xmlns="http://www.w3.org/2000/svg"  style="fill-rule:evenodd;clip-rule:evenodd;stroke-linecap:round;stroke-linejoin:round;stroke-miterlimit:1.5;">
    <g transform="matrix(1,0,0,1,-622.842,-432.943)">
        <g id="Layer13">
            <g id="Layer5">
                <path d="M1188.48,947.186L1188.48,973.386C1203.94,983.448 1221.81,987.774 1242.63,985.052C1259.79,982.562 1274.87,976.509 1288.22,967.504L1316.35,916.582L1288.22,856.686L1209.01,889.828L1188.48,947.186Z" style="fill:rgb(249,206,168);"/>
            </g>
            <g id="Layer9">
                <path d="M1401.46,1021.02L1440.32,1049.46C1466.86,1049.06 1523.6,983.393 1542.49,967.664C1548.55,962.618 1528.61,945.952 1527.67,923.114C1527.24,912.686 1511.64,901.842 1511.57,896.261C1511.5,890.681 1522.37,886.755 1527.27,889.63C1533.04,893.017 1540.11,914.946 1546.19,916.582C1552.27,918.217 1560.52,906.96 1563.74,899.445C1568.91,887.4 1573.68,853.473 1577.18,844.307C1579.18,839.063 1588.69,840.382 1588.63,846.086C1588.53,855.138 1577.99,897.71 1581.91,898.416C1585.83,899.121 1606.16,858.265 1612.15,850.319C1617.43,843.305 1626.43,849.852 1624.01,857.593C1620.95,867.363 1593.16,907.704 1595.39,909.422C1597.85,911.309 1626.11,876.631 1631.55,872.747C1633.21,871.565 1636.92,870.677 1639.14,872.347C1641.22,873.915 1641.14,877.86 1640.33,879.59C1636.17,888.437 1605.32,921.167 1605.81,925.674C1606.3,930.182 1636.53,908.593 1643.26,906.635C1650.14,904.638 1652.7,912.718 1646.91,916.582C1640.82,920.654 1622.97,929.558 1613.88,939.376C1585.29,970.258 1505.02,1071.7 1475.38,1101.87C1465.23,1112.21 1449.18,1120.42 1436.07,1120.42C1422.96,1120.42 1408.38,1110.5 1396.73,1101.87C1382.07,1091.01 1348.1,1055.26 1348.1,1055.26L1401.46,1021.02Z" style="fill:rgb(249,206,168);stroke:black;stroke-width:5.15px;"/>
                <path d="M1547.69,916.582C1557.01,921.643 1565.92,929.601 1569.13,942.427" style="fill:none;stroke:black;stroke-width:5.15px;"/>
            </g>
            <g id="Layer12">
                <path d="M1128.63,1069.35C1116.61,1112 1100.26,1138.82 1100.26,1138.82L1054.96,1138.82C1046.89,1138.82 1016.92,1068.57 1016.92,1068.57L1069.55,1016.94L1142.4,1029.35C1142.4,1029.35 1140.65,1026.71 1128.63,1069.35Z" style="fill:rgb(249,203,163);"/>
            </g>
            <g id="Layer6">
                <path d="M1188.48,950.222C1185.44,963.01 1192.14,973.62 1202.73,979.689C1213.14,985.659 1238.28,987.568 1252.41,985.85C1269.81,983.736 1282.78,974.816 1288.22,966.859C1297.02,953.976 1330.35,956.628 1343.53,964.327C1356.71,972.027 1363.87,1000.93 1367.31,1016.15C1370.22,1029.03 1367.37,1042.82 1364.17,1055.63C1360.57,1070.05 1349.11,1086.18 1345.7,1102.67C1342.01,1120.56 1311.94,1131.8 1311.34,1151.92C1310.49,1180.13 1306.9,1274.26 1306.9,1274.07C1306.95,1265.46 1120.33,1220.33 1120.33,1220.33L1131.53,1148.73C1112.12,1145.98 1094.27,1127.12 1107.14,1092.64C1107.69,1091.19 1113.99,1078.61 1119.16,1071.09C1135.01,1048.03 1133.98,1014.58 1132.51,1014.33C1131.82,1014.21 1132.87,1027.7 1131.42,1039.75C1130.17,1050.17 1126.78,1059.48 1124.77,1061.12C1121.13,1064.11 1110.93,1089.73 1109.19,1088.39C1100.53,1081.7 1067.74,1056.07 1069.63,1036.8C1072.07,1011.93 1091.15,953.611 1110.96,939.181C1130.77,924.752 1192.49,933.303 1188.48,950.222Z" style="fill:rgb(204,248,255);stroke:black;stroke-width:6.05px;"/>
            </g>
            <g id="Layer4">
                <g transform="matrix(1,0,0,1,-5.55522,2.61638)">
                    <path d="M1295.14,463.259C1289.31,456.698 1280.34,451.939 1272.48,448.364C1247.85,437.169 1208.3,434.585 1182.46,442.536C1171.31,445.967 1148.5,457.341 1142.96,458.726C1125.82,463.01 1098.95,473.522 1088.78,487.768C1077.65,503.349 1077.59,525.309 1063.51,539.39C1043.8,559.099 1024.9,560.137 1010.85,588.246C988.807,632.322 1018.28,659.502 1005.67,684.738C989.249,717.571 946.513,723.984 950.619,765.041C954.239,801.238 987.239,822.597 984.294,860.885C981.275,900.138 934.082,914.563 937.019,964.501C939.368,1004.43 987.957,1019.66 997.894,1057.76C1011.78,1110.97 981.704,1131.15 981.704,1169.79C981.704,1171.19 998.739,1159.23 1015.38,1147.12C1037.63,1130.94 1065.92,1111.92 1082.71,1090.1C1096.17,1072.6 1103.43,1048.33 1109.93,1026.67C1116.03,1006.32 1116.66,989.337 1127.03,970.676C1138.62,949.813 1202.02,957.327 1205.13,937.302C1211.35,897.137 1209.55,878.565 1249.1,881.429C1264.1,882.514 1274.03,879.618 1288.22,874.887C1289.26,874.539 1282.09,906.696 1281.49,910.08C1271.98,964.205 1302.61,1001 1302.61,1007.49C1302.61,1024.21 1288.01,1042.56 1280.25,1050.63C1261.14,1070.49 1257.7,1109.57 1266.65,1119.28C1281.28,1135.14 1295.8,1145.88 1299.67,1165.26C1300.66,1170.19 1283.39,1189.42 1281.49,1202.22C1278.82,1220.24 1291.17,1232.43 1293.1,1234.35C1293.67,1234.92 1294.86,1210.77 1302.61,1208.22C1316.94,1203.5 1322.96,1197.57 1337.24,1190.51C1361.15,1178.7 1367.91,1151.1 1358.61,1127.05C1355.61,1119.3 1356.64,1107.67 1360.55,1099.85C1368.79,1083.37 1401.88,1083.34 1414.95,1046.75C1424.35,1020.43 1399.74,984.17 1404.91,966.059C1410.55,946.349 1426.74,929.652 1440.2,917.226C1450.6,907.629 1459.3,894.826 1466.76,882.904C1474.34,870.775 1462.28,854.669 1459.63,842.753C1459,839.897 1482.21,788.669 1488.13,776.697C1494.11,764.604 1504.26,682.074 1490.01,658.313C1480.01,641.641 1460.79,601.302 1459.94,596.246C1457.39,580.922 1462.06,548.056 1445.28,525.389C1426.29,499.732 1422.87,495.893 1396.52,478.33C1387.79,472.507 1361.41,465.982 1345.36,461.735C1333.09,458.488 1300.75,471.163 1292.21,462.617" style="fill:rgb(72,48,48);stroke:black;stroke-width:15.2px;"/>
                </g>
                <path d="M1131.08,535.113C1126.74,536.241 1119.69,538.076 1113.25,541.067C1109.18,542.955 1105.35,545.307 1102.52,548.202C1097.8,553.029 1092.49,560.312 1087.67,568.323C1083.3,575.601 1079.33,583.478 1076.58,590.65C1075.43,593.64 1074.57,596.855 1073.89,600.183C1071.2,613.372 1071.54,628.42 1067.89,637.893C1066.85,640.586 1065.26,642.956 1063.43,645.189C1058.91,650.717 1052.98,655.446 1049.27,661.55C1044.49,669.383 1036.91,680.134 1030.71,691.698C1026.82,698.973 1023.47,706.569 1021.65,713.973C1019.14,724.189 1017.27,738.335 1015.89,753.177C1014.79,765.084 1013.84,777.433 1013.41,788.549C1013.06,797.532 1013.09,805.696 1013,812.15C1012.95,813.427 1013.95,814.503 1015.22,814.551C1016.5,814.599 1017.58,813.602 1017.62,812.325C1017.98,806.608 1018.54,799.555 1018.98,791.762C1019.82,776.988 1020.56,759.592 1022.11,743.905C1023.2,732.977 1024.55,722.879 1026.35,715.093C1027.98,708.026 1031.08,700.765 1034.69,693.794C1040.68,682.227 1048.07,671.451 1052.7,663.607C1056.24,657.62 1062,652.978 1066.34,647.544C1068.39,644.983 1070.14,642.259 1071.29,639.187C1074.92,629.535 1074.51,614.257 1077.16,600.841C1077.79,597.695 1078.59,594.656 1079.66,591.828C1082.34,584.821 1086.21,577.124 1090.49,570.017C1095.16,562.256 1100.31,555.2 1104.9,550.529C1107.47,547.909 1110.97,545.814 1114.66,544.111C1120.9,541.231 1127.72,539.485 1131.93,538.404C1132.84,538.169 1133.38,537.242 1133.15,536.334C1132.92,535.425 1131.99,534.879 1131.08,535.113Z" style="fill:rgb(41,10,10);"/>
                <path d="M1025.11,1004.24C1033.77,996.726 1037.76,987.571 1039.08,978.93C1041.05,966.005 1036.86,954.205 1032.88,950.383C1030.27,947.838 1027.73,945.286 1025.59,942.596C1024.13,940.772 1022.87,938.882 1021.91,936.885C1020.02,932.955 1018.67,928.613 1017.86,924.174C1017.06,919.735 1016.81,915.198 1017.13,910.871C1017.53,905.307 1019.76,901.242 1022.86,897.836C1031.12,888.751 1044.88,883.748 1051.33,871.823C1057.86,859.725 1062.05,836.035 1063.76,811.974C1064.82,797.013 1065.13,781.904 1064.19,769.463C1063.65,762.329 1062.63,756.087 1061.5,751.201C1061.19,749.677 1059.71,748.687 1058.18,748.991C1056.66,749.296 1055.67,750.782 1055.97,752.306C1056.92,757.833 1057.32,765.132 1057.6,773.428C1058.1,788.344 1057.87,806.465 1056.19,823.405C1054.34,842.103 1051.05,859.348 1045.98,868.968C1039.91,880.517 1026.47,885.22 1018.68,894.106C1014.89,898.43 1012.26,903.604 1011.94,910.565C1011.73,915.311 1012.15,920.268 1013.18,925.098C1014.21,929.915 1015.83,934.605 1018.02,938.831C1019.18,941.074 1020.68,943.191 1022.39,945.22C1024.72,947.967 1027.45,950.565 1030.27,953.146C1033.84,956.478 1037.4,966.973 1035.73,978.433C1034.58,986.378 1030.85,994.774 1022.89,1001.67C1022.18,1002.28 1022.1,1003.36 1022.72,1004.07C1023.33,1004.78 1024.4,1004.85 1025.11,1004.24Z" style="fill:rgb(41,10,10);"/>
                <path d="M1345.41,928.849C1348.36,925.279 1351.82,922.672 1355.5,920.457C1361.34,916.954 1367.75,914.415 1373.8,910.849C1379.83,907.289 1385.15,901.71 1389.81,895.32C1396.46,886.194 1401.76,875.408 1405.94,866.754C1411.19,855.863 1413.3,846.872 1413.83,839.152C1414.54,828.891 1412.43,820.878 1411.07,813.584C1410.1,808.322 1409.5,803.474 1411.12,798.324C1414.8,786.482 1425.58,777.653 1431.56,766.697C1433.22,763.661 1434.54,760.475 1435.33,757.061C1437.5,747.671 1436.57,736.999 1433.88,725.922C1430.65,712.66 1425,698.755 1419.39,685.9C1415.32,676.59 1411.25,667.858 1408.45,660.217C1408,658.938 1406.6,658.263 1405.32,658.711C1404.04,659.158 1403.37,660.56 1403.81,661.839C1406.42,669.655 1410.14,678.668 1414.1,688.158C1419.38,700.81 1425.04,714.34 1428.19,727.305C1430.64,737.428 1431.63,747.169 1429.66,755.752C1428.99,758.649 1427.87,761.347 1426.47,763.929C1420.36,775.225 1409.51,784.482 1405.79,796.685C1403.96,802.752 1404.56,808.435 1405.78,814.598C1407.14,821.509 1409.29,829.084 1408.74,838.832C1408.33,846.058 1406.44,854.481 1401.67,864.731C1397.72,873.234 1392.72,883.841 1386.36,892.841C1382.13,898.824 1377.32,904.103 1371.78,907.485C1365.78,911.146 1359.4,913.783 1353.62,917.377C1349.64,919.853 1345.93,922.766 1342.78,926.706C1342.18,927.434 1342.3,928.505 1343.02,929.096C1343.75,929.688 1344.82,929.577 1345.41,928.849Z" style="fill:rgb(41,10,10);"/>
                <path d="M1307.48,519.176C1314.79,515.339 1324.13,517.768 1332.16,522.662C1340.36,527.663 1347.25,535.317 1349.16,542.157C1351.01,548.71 1351.23,555.22 1350.69,561.711C1349.37,577.52 1343.63,593.236 1344.26,609.164C1344.49,614.647 1346.42,619.628 1349.2,624.353C1354.97,634.146 1364.59,642.781 1368.54,653.219C1370.33,657.914 1371.35,662.82 1371.98,667.824C1373.51,679.788 1372.89,692.304 1374.89,703.972C1375.57,707.873 1377.44,712.022 1379.93,716.172C1385.13,724.862 1393.01,733.611 1397.06,740.152C1397.5,740.879 1398.45,741.108 1399.18,740.664C1399.91,740.22 1400.14,739.269 1399.69,738.542C1395.73,731.971 1387.97,723.154 1382.88,714.425C1380.69,710.654 1379,706.909 1378.43,703.382C1376.55,691.739 1377.31,679.277 1375.91,667.345C1375.28,662.015 1374.23,656.79 1372.38,651.778C1368.42,641.111 1358.76,632.183 1352.91,622.176C1350.51,618.059 1348.78,613.75 1348.58,608.984C1347.89,593.237 1353.59,577.682 1354.8,562.042C1355.34,555.071 1355.02,548.085 1352.98,541.066C1350.78,533.504 1343.21,524.957 1334.06,519.505C1324.87,514.029 1314.16,511.722 1305.88,516.175C1305.06,516.615 1304.74,517.645 1305.18,518.473C1305.62,519.301 1306.65,519.616 1307.48,519.176Z" style="fill:rgb(41,10,10);"/>
                <path d="M1239.91,484.026C1239.54,483.396 1238.93,482.376 1238.21,481.442C1237.71,480.805 1237.16,480.211 1236.58,479.766C1235.2,478.7 1233.05,476.9 1230.68,475.432C1229.13,474.476 1227.5,473.664 1225.91,473.229C1221.2,471.937 1212.92,468.657 1204.67,467.053C1199.21,465.992 1193.77,465.68 1189.28,466.958C1185.23,468.111 1181.87,470.32 1178.97,473.055C1172.06,479.578 1167.99,489.282 1162.46,492.797C1161.45,493.444 1160.35,493.854 1159.19,494.128C1153.84,495.395 1147.5,494.196 1142.51,496.659C1137.67,499.05 1130.48,503.315 1122.86,508.068C1112.55,514.507 1101.45,521.836 1094.42,526.48C1093.77,526.902 1093.59,527.77 1094.01,528.418C1094.43,529.065 1095.3,529.249 1095.94,528.827C1103.02,524.276 1114.18,517.109 1124.54,510.791C1132.1,506.184 1139.22,502.028 1144,499.714C1148.79,497.401 1154.86,498.748 1159.99,497.581C1161.54,497.229 1163.02,496.676 1164.38,495.822C1170.06,492.24 1174.4,482.419 1181.5,475.737C1183.98,473.402 1186.83,471.474 1190.29,470.483C1194.28,469.338 1199.12,469.701 1203.98,470.627C1212.14,472.181 1220.34,475.37 1224.99,476.619C1226.28,476.963 1227.6,477.631 1228.85,478.397C1231.12,479.778 1233.17,481.484 1234.49,482.489L1236.98,485.753C1237.45,486.561 1238.5,486.83 1239.31,486.353C1240.11,485.876 1240.38,484.834 1239.91,484.026Z" style="fill:rgb(41,10,10);"/>
                <path d="M1414.13,562.97C1413.71,563.752 1412.38,566.193 1412.35,566.276C1408.99,574.614 1408.41,582.637 1409.69,590.441C1410.99,598.402 1414.21,606.133 1418.37,613.741C1421.72,619.87 1425.55,625.033 1429.62,629.839C1436.01,637.386 1442.99,644.062 1449.69,652.132C1453.61,656.856 1456.08,663.102 1457.71,670.019C1461.16,684.678 1460.8,702.395 1463.27,714.257C1463.42,714.98 1462.96,715.69 1462.24,715.842C1461.51,715.994 1460.8,715.531 1460.65,714.809C1458.14,702.981 1458.42,685.296 1454.92,670.681C1453.38,664.24 1451.1,658.405 1447.42,654.017C1439.56,644.62 1431.32,637.126 1424.07,627.921C1421.05,624.08 1418.19,619.945 1415.6,615.263C1411.22,607.341 1407.86,599.277 1406.47,590.974C1405.06,582.603 1405.65,573.989 1409.22,565.023C1409.27,564.886 1410.68,561.341 1412.05,560.161C1413.14,559.214 1414.27,559.157 1415.28,559.927C1416.03,560.498 1416.17,561.565 1415.6,562.31C1415.24,562.779 1414.68,563.008 1414.13,562.97Z" style="fill:rgb(41,10,10);"/>
                <path d="M1312.51,1181.4C1316.42,1178.47 1322.6,1173.63 1323.23,1166.28C1323.62,1161.69 1321.92,1156.03 1315.9,1149.21C1312.79,1145.68 1312.39,1139.81 1312.91,1133.07C1314.01,1118.91 1319.44,1101.09 1317.84,1090.71C1316.35,1080.99 1307.5,1071.85 1303.58,1063.36C1302.53,1061.1 1301.86,1058.9 1301.91,1056.74C1302.11,1048.73 1312.1,1043.1 1316.74,1035.73C1318.11,1033.56 1319.07,1031.27 1319.37,1028.79C1320.99,1015.62 1314.72,988.748 1313.64,969.292C1313.33,963.693 1313.45,958.731 1314.38,954.948C1314.59,954.072 1314.05,953.186 1313.18,952.971C1312.3,952.756 1311.41,953.294 1311.2,954.17C1310.21,958.206 1310.04,963.499 1310.37,969.472C1311.43,988.739 1317.69,1015.34 1316.09,1028.38C1315.06,1036.74 1305.2,1042.47 1300.91,1049.48C1299.53,1051.74 1298.65,1054.1 1298.59,1056.66C1298.52,1059.29 1299.28,1062 1300.55,1064.76C1304.35,1072.99 1313.09,1081.79 1314.53,1091.22C1316.34,1103 1308.85,1124.5 1309.39,1139.06C1309.58,1144.17 1310.75,1148.49 1313.36,1151.44C1318.52,1157.3 1320.19,1162.05 1319.85,1165.99C1319.31,1172.25 1313.8,1176.19 1310.47,1178.69C1309.72,1179.25 1309.57,1180.32 1310.13,1181.07C1310.69,1181.82 1311.76,1181.97 1312.51,1181.4Z" style="fill:rgb(41,10,10);"/>
                <path d="M1349.43,1068.36C1355.99,1060.03 1366.35,1046.88 1374.4,1034.01C1380.36,1024.48 1385.04,1015.08 1386.14,1007.83C1386.66,1004.37 1385.96,1000.98 1384.49,997.664C1381.58,991.118 1375.57,984.853 1370.89,978.9C1367.49,974.558 1364.74,970.452 1365.07,966.447C1365.46,961.7 1368.51,956.809 1372.47,952.213C1378.43,945.296 1386.49,939.1 1391.56,935.198C1392.23,934.682 1392.36,933.717 1391.84,933.045C1391.32,932.374 1390.36,932.247 1389.69,932.764C1384.49,936.751 1376.23,943.097 1370.11,950.173C1365.66,955.315 1362.37,960.866 1361.92,966.187C1361.53,970.858 1364.42,975.793 1368.38,980.867C1372.88,986.625 1378.74,992.647 1381.53,998.975C1382.74,1001.71 1383.36,1004.49 1382.92,1007.34C1381.86,1014.25 1377.3,1023.17 1371.59,1032.25C1363.58,1045 1353.29,1058.01 1346.77,1066.25C1346.19,1066.99 1346.31,1068.06 1347.05,1068.64C1347.78,1069.22 1348.85,1069.09 1349.43,1068.36Z" style="fill:rgb(41,10,10);"/>
                <path d="M1322.94,884.522C1322.63,884.93 1322.14,885.193 1321.59,885.193C1320.65,885.193 1319.89,884.432 1319.89,883.494C1319.89,883.424 1319.88,882.735 1320.62,882.059C1320.94,881.77 1321.63,881.185 1322.58,880.376C1326.66,876.904 1335.7,869.233 1341.57,863.769C1346.49,859.054 1351.34,854.113 1355.41,849.374C1358.62,845.642 1361.34,842.04 1363.2,838.777C1365.64,834.505 1367.01,829.226 1367.75,823.828C1368.97,814.862 1368.47,805.566 1368.16,799.827C1368.13,799.165 1368.63,798.599 1369.3,798.563C1369.96,798.528 1370.53,799.037 1370.56,799.699C1370.87,805.547 1371.37,815.017 1370.12,824.153C1369.35,829.869 1367.89,835.452 1365.31,839.979C1363.39,843.362 1360.59,847.104 1357.28,850.976C1353.18,855.784 1348.28,860.8 1343.31,865.586C1337.59,871.249 1328.72,879.206 1324.75,882.837C1323.87,883.645 1323.23,884.822 1322.94,884.527L1322.94,884.522Z" style="fill:rgb(41,10,10);"/>
                <path d="M1106.65,877.538C1107.29,883.384 1110.2,886.932 1110.07,892.301C1110.01,894.754 1109.26,897.6 1107.29,901.305C1102.53,910.281 1101.03,910.365 1099.76,912.221C1098.88,913.489 1098.06,915.504 1096.54,921.218C1095.53,925.025 1095.83,928.635 1096.85,932.165C1098.93,939.346 1104.19,946.169 1106.49,953.818C1107.13,955.97 1106.46,957.991 1105.14,960.02C1100.48,967.209 1088.52,974.353 1084.05,984.464C1082.18,988.702 1083.41,994.377 1086.3,1000.71C1090.8,1010.54 1099.17,1022.19 1103.14,1032.39C1103.49,1033.28 1104.49,1033.72 1105.38,1033.38C1106.27,1033.03 1106.71,1032.03 1106.37,1031.14C1102.37,1020.88 1093.96,1009.16 1089.44,999.277C1087.03,994.023 1085.64,989.371 1087.2,985.855C1091.59,975.91 1103.44,968.957 1108.02,961.885C1109.93,958.936 1110.71,955.96 1109.77,952.833C1107.48,945.195 1102.21,938.384 1100.13,931.214C1099.28,928.273 1099,925.266 1099.84,922.094C1101.17,917.071 1101.8,915.266 1102.57,914.151C1103.88,912.241 1105.4,912.141 1110.3,902.901C1112.59,898.581 1113.41,895.242 1113.48,892.382C1113.61,886.856 1110.69,883.187 1110.03,877.17C1109.93,876.238 1109.09,875.563 1108.16,875.665C1107.23,875.766 1106.55,876.605 1106.65,877.538Z" style="fill:rgb(41,10,10);"/>
                <path d="M982.035,983.684C980.162,982.588 978.409,980.582 976.781,978.331C974.232,974.808 972.044,970.661 970.421,967.894C967.138,962.294 967.716,957.097 970.194,952.151C976.157,940.249 992.115,929.625 997.436,918.762C1000.57,912.274 1000.28,906.885 999.755,901.251C999.322,896.6 998.718,891.766 1000.52,885.75C1002.53,879 1007.5,870.83 1018.67,859.808C1019.58,858.913 1019.6,857.446 1018.7,856.532C1017.81,855.618 1016.34,855.602 1015.43,856.496C1003.31,868.245 998.011,877.079 995.799,884.326C993.742,891.067 994.31,896.497 994.804,901.716C995.259,906.512 995.678,911.113 993.039,916.651C987.915,927.55 972.155,938.353 966.432,950.308C963.464,956.509 962.93,962.983 967.149,969.857C968.875,972.668 971.219,976.881 973.913,980.451C975.904,983.089 978.094,985.376 980.349,986.635C981.163,987.1 982.202,986.817 982.668,986.003C983.133,985.188 982.85,984.149 982.035,983.684Z" style="fill:rgb(41,10,10);"/>
                <path d="M1254.34,506.746C1254.37,506.822 1254.39,506.902 1254.41,506.985C1254.6,507.903 1254.01,508.804 1253.09,508.995C1251.65,509.281 1250.96,508.623 1250.78,507.434C1250.72,507.012 1250.84,506.101 1251.5,504.917C1252.97,502.257 1257.27,496.786 1263.33,491.382C1268.06,487.163 1272.9,481.968 1278.08,477.63C1280.4,475.689 1282.78,473.916 1285.25,472.468C1287.99,470.857 1291.1,469.86 1293.84,468.309C1294.94,467.69 1295.98,466.979 1296.89,466.08C1297.33,465.648 1298.03,465.648 1298.46,466.08C1298.89,466.513 1298.89,467.215 1298.46,467.647C1297.42,468.706 1296.24,469.556 1294.99,470.296C1292.29,471.89 1289.22,472.937 1286.52,474.592C1284.2,476.015 1281.97,477.749 1279.8,479.639C1274.72,484.059 1270,489.328 1265.37,493.621C1259.77,498.808 1255.79,503.993 1254.45,506.519L1254.34,506.746ZM1252.55,505.644C1252.5,505.649 1252.45,505.656 1252.4,505.667L1252.55,505.644Z" style="fill:rgb(41,10,10);"/>
            </g>
            <g id="Layer1">
                <g transform="matrix(1,0,0,1,-2.73635,-1.34313)">
                    <path d="M1091.32,644.515C1092.71,706.483 1084.21,754.169 1092.36,800.734C1097.64,830.876 1111.7,850.989 1127.45,877.222C1135.3,890.286 1146.77,904.457 1160.74,910.547C1179.1,918.551 1179.85,916.937 1192.63,915.002C1205.08,913.117 1217.56,909.695 1229.54,906.79C1249.78,901.877 1260.66,894.555 1293.71,878.214C1318.5,865.957 1332.75,860.629 1346.9,836.762C1353.04,826.404 1346.38,811.823 1350.61,795.781C1352.86,787.251 1357.01,777.88 1363.08,768C1370.99,755.117 1358.65,738.488 1358.61,723.799C1358.55,699.555 1350.58,690.452 1353.58,666.419C1355.68,649.493 1329.78,634.961 1322.77,619.413C1304.93,579.869 1316.44,584.009 1302.61,572.344C1281.49,554.535 1245.58,542.773 1224.46,542.314C1205.89,541.909 1198.79,566.717 1175.87,569.584C1149.92,572.831 1138.78,599.736 1127.28,616.01C1116.57,631.176 1107.96,635.623 1091.32,644.515Z" style="fill:rgb(249,203,163);stroke:black;stroke-width:5.2px;"/>
                </g>
                <path d="M1247.82,655.28C1243.57,655.818 1240.44,666.569 1244.57,667.704C1254.11,670.328 1290.2,667.208 1305.06,671.024C1316.28,673.903 1332.63,692.572 1333.75,690.599C1334.88,688.626 1315.84,660.606 1311.81,659.186C1307.78,657.766 1259.02,653.861 1247.82,655.28Z" style="fill:rgb(72,48,48);"/>
                <g transform="matrix(-0.927895,-0.256754,-0.266684,0.963784,2518.09,334.338)">
                    <path d="M1247.82,655.28C1243.01,656.218 1240.44,666.569 1244.57,667.704C1254.11,670.328 1290.2,667.208 1305.06,671.024C1316.28,673.903 1332.63,692.572 1333.75,690.599C1334.88,688.626 1315.84,660.606 1311.81,659.186C1307.78,657.766 1258.89,653.119 1247.82,655.28Z" style="fill:rgb(72,48,48);"/>
                </g>
                <g transform="matrix(0.986186,5.55112e-17,0,1,16.322,0)">
                    <path d="M1181.33,703.759C1183.51,694.765 1168.27,673.169 1159.99,669.808C1145.15,663.782 1111.07,666.755 1107.27,677.461C1100.59,696.286 1127.66,709.252 1143.53,710.787C1157.55,712.143 1173.37,709.807 1181.33,703.759Z" style="fill:white;"/>
                    <clipPath id="_clip1">
                        <path d="M1181.33,703.759C1183.51,694.765 1168.27,673.169 1159.99,669.808C1145.15,663.782 1111.07,666.755 1107.27,677.461C1100.59,696.286 1127.66,709.252 1143.53,710.787C1157.55,712.143 1173.37,709.807 1181.33,703.759Z"/>
                    </clipPath>
                    <g clip-path="url(#_clip1)">
                        <g id="Layer3" transform="matrix(1.01401,0,0,1,-16.5506,0)">
                            <g transform="matrix(1.02288,0,0,1.04032,-20.075,-28.8656)">
                                <ellipse cx="1143.78" cy="689.088" rx="20.644" ry="20.75" style="fill:rgb(72,48,48);stroke:black;stroke-width:2.96px;"/>
                            </g>
                            <g transform="matrix(1,0,0,1,7.38526,-4.26265)">
                                <circle cx="1142.49" cy="692.268" r="7.385" style="stroke:black;stroke-width:4.8px;"/>
                            </g>
                            <g transform="matrix(1.73346,-0.502746,0.750076,2.58625,-1364.4,-495.045)">
                                <ellipse cx="1154.77" cy="679.357" rx="2.491" ry="1.262" style="fill:white;"/>
                            </g>
                        </g>
                    </g>
                    <path d="M1181.33,703.759C1183.51,694.765 1168.27,673.169 1159.99,669.808C1145.15,663.782 1111.07,666.755 1107.27,677.461C1100.59,696.286 1127.66,709.252 1143.53,710.787C1157.55,712.143 1173.37,709.807 1181.33,703.759Z" style="fill:none;stroke:black;stroke-width:5.24px;"/>
                </g>
                <path d="M1187.83,720.555C1187.83,729.785 1180.84,741.203 1176.68,746.762C1171.68,753.438 1164.42,762.221 1164.42,768C1164.42,773.779 1174.41,780.647 1181.54,783.283C1189.49,786.224 1205.86,788.194 1212.33,785.647C1218.35,783.279 1222.68,775.5 1219.31,768" style="fill:rgb(249,203,163);stroke:black;stroke-width:5.2px;"/>
                <g id="Layer11">
                </g>
                <g id="Layer10">
                    <path d="M1142.99,807.973C1142.99,807.973 1145.29,812.217 1155.23,812.111C1165.02,812.007 1174.76,811.214 1181.9,811.77C1186.35,812.116 1189.28,817.967 1193.53,818.391C1197.78,818.815 1201.89,812.818 1207.38,814.316C1215.37,816.492 1252.11,823.392 1250.58,822.154C1250.58,822.154 1242.34,832.992 1228.94,844.045C1215.63,855.017 1205.04,856.412 1192.38,854.717C1182.71,853.424 1173.44,851.52 1167.17,844.045C1164.34,840.663 1162.16,839.128 1157.19,830.394C1151.04,819.599 1142.99,807.973 1142.99,807.973Z" style="fill:rgb(222,132,132);"/>
                </g>
                <g transform="matrix(1.01515,0,0,0.827629,-17.6304,144.68)">
                    <path d="M1143.3,801.436C1149.12,810.328 1155.7,809.902 1163.33,814.025C1177.42,821.64 1196.31,823.353 1207.69,823.169C1223.97,822.907 1249.33,821.028 1257.91,813.946C1264.75,808.303 1227.16,840.005 1217.03,843.313C1203.97,847.574 1180.91,843.45 1169.37,835.506C1156.07,826.343 1139,794.875 1143.3,801.436Z" style="fill:white;stroke:black;stroke-width:3.02px;"/>
                </g>
                <path d="M1155.8,822.33C1155.8,822.33 1168.88,829.811 1177.24,832.78C1184.97,835.526 1194.31,836.37 1201.24,837.043C1207.09,837.61 1213.13,836.658 1218.82,835.644C1227.99,834.009 1244.14,825.997 1243.48,827.089C1241.69,830.038 1227.93,837.093 1218.81,841.065C1213.78,843.257 1204.15,843.392 1195.29,842.347C1186.42,841.301 1178.46,838.598 1174.96,837.791C1168.92,836.4 1155.25,822.762 1155.8,822.33Z" style="fill:rgb(97,14,14);"/>
                <g transform="matrix(-0.963515,-0.264685,-0.264895,0.964277,2562.6,344.605)">
                    <path d="M1181.33,703.759C1183.51,694.765 1168,673.768 1159.99,669.808C1142.53,661.172 1108.9,664.592 1107.27,677.461C1104.77,697.279 1127.66,709.252 1143.53,710.787C1157.55,712.143 1173.37,709.807 1181.33,703.759Z" style="fill:white;"/>
                    <clipPath id="_clip2">
                        <path d="M1181.33,703.759C1183.51,694.765 1168,673.768 1159.99,669.808C1142.53,661.172 1108.9,664.592 1107.27,677.461C1104.77,697.279 1127.66,709.252 1143.53,710.787C1157.55,712.143 1173.37,709.807 1181.33,703.759Z"/>
                    </clipPath>
                    <g clip-path="url(#_clip2)">
                        <g transform="matrix(-0.987123,-0.270956,-0.275793,1.00316,2459.71,306.13)">
                            <ellipse cx="1143.78" cy="689.088" rx="20.644" ry="20.75" style="fill:rgb(72,48,48);stroke:black;stroke-width:2.96px;"/>
                        </g>
                        <g transform="matrix(-0.965041,-0.264895,-0.265104,0.964277,2426.94,321.652)">
                            <circle cx="1142.49" cy="692.268" r="7.385" style="stroke:black;stroke-width:4.8px;"/>
                        </g>
                        <g transform="matrix(-1.53958,-0.94397,-1.40948,2.29517,3880.88,211.78)">
                            <ellipse cx="1154.77" cy="679.357" rx="2.491" ry="1.262" style="fill:white;"/>
                        </g>
                    </g>
                    <path d="M1181.33,703.759C1183.51,694.765 1168,673.768 1159.99,669.808C1142.53,661.172 1108.9,664.592 1107.27,677.461C1104.77,697.279 1127.66,709.252 1143.53,710.787C1157.55,712.143 1173.37,709.807 1181.33,703.759Z" style="fill:none;stroke:black;stroke-width:5.2px;"/>
                </g>
            </g>
            <g id="Layer7">
                <path d="M626.292,955.982L683.717,1254.7L1142.4,1321.66L1075.18,1011.57L626.292,955.982Z" style="fill:rgb(193,193,193);stroke:black;stroke-width:6.9px;"/>
                <path d="M689.866,1259.06C685.952,1267.07 687.615,1277.12 695.123,1289.3L758.131,1299.44L1142.4,1350.6C1135.44,1337.64 1133.45,1331.69 1142.4,1321.66L689.866,1259.06Z" style="fill:rgb(193,193,193);stroke:black;stroke-width:6.9px;"/>
                <g transform="matrix(1,0,0,1,270.074,36.229)">
                    <path d="M755.049,1272.65C752.773,1285.95 754.034,1291.53 758.131,1299.44" style="fill:none;stroke:black;stroke-width:6.9px;"/>
                </g>
                <g transform="matrix(1,0,0,1,189.201,22.8317)">
                    <path d="M755.049,1272.65C752.773,1285.95 754.034,1291.53 758.131,1299.44" style="fill:none;stroke:black;stroke-width:6.9px;"/>
                </g>
                <path d="M755.113,1268.08C752.838,1281.38 754.034,1291.53 758.131,1299.44" style="fill:none;stroke:black;stroke-width:6.9px;"/>
                <path d="M827.24,1277C824.277,1286.13 824.205,1295.84 826.514,1304.83" style="fill:none;stroke:black;stroke-width:6.9px;"/>
                <path d="M1142.4,1350.6L1313.63,1290.91L1312.36,1257.2L1142.4,1308.88C1142.4,1308.88 1135.29,1328.72 1135.29,1335.67C1135.29,1341.18 1142.4,1350.6 1142.4,1350.6Z" style="fill:rgb(146,146,146);stroke:black;stroke-width:6.9px;"/>
                <path d="M1313.63,1257.2L1142.4,1308.88L1120.8,1225.59L1313.63,1257.2Z" style="fill:rgb(193,193,193);stroke:black;stroke-width:6.9px;"/>
                <path d="M1135.29,1287.35L1224.46,1259.06L1127.28,1245.3L1135.29,1287.35Z" style="fill:rgb(128,128,128);stroke:black;stroke-width:6.9px;"/>
            </g>
        </g>
    </g>
</svg>
